<svg xmlns="http://www.w3.org/2000/svg" version="1.1" xmlns:xlink="http://www.w3.org/1999/xlink" xmlns:svgjs="http://svgjs.dev/svgjs" width="1500" height="1500" viewBox="0 0 1500 1500"><g transform="matrix(1,0,0,1,-0.323615160350073,-0.3236151603499593)"><svg viewBox="0 0 343 343" data-background-color="#ffffff" preserveAspectRatio="xMidYMid meet" height="1500" width="1500" xmlns="http://www.w3.org/2000/svg" xmlns:xlink="http://www.w3.org/1999/xlink"><g id="tight-bounds" transform="matrix(1,0,0,1,0.0740000000000407,0.07400000000001228)"><svg viewBox="0 0 342.85155851775386 342.85155851775386" height="342.85155851775386" width="342.85155851775386"><g><svg></svg></g><g><svg viewBox="0 0 342.85155851775386 342.85155851775386" height="342.85155851775386" width="342.85155851775386"><g><path d="M0 171.426c0-94.676 76.75-171.426 171.426-171.426 94.676 0 171.426 76.75 171.426 171.426 0 94.676-76.75 171.426-171.426 171.426-94.676 0-171.426-76.75-171.426-171.426zM171.426 339.862c93.025 0 168.437-75.412 168.436-168.436 0-93.025-75.412-168.437-168.436-168.437-93.025 0-168.437 75.412-168.437 168.437 0 93.025 75.412 168.437 168.437 168.436z" data-fill-palette-color="tertiary" fill="#ceb700" stroke="transparent"></path><ellipse rx="164.56874808852186" ry="164.56874808852186" cx="171.42577925887693" cy="171.42577925887693" fill="#ceb700" stroke="transparent" stroke-width="0" fill-opacity="1" data-fill-palette-color="tertiary"></ellipse></g><g transform="matrix(1,0,0,1,64.84655864529837,94.3196196378205)"><svg viewBox="0 0 213.1584412271571 154.21231924211287" height="154.21231924211287" width="213.1584412271571"><g><svg viewBox="0 0 213.1584412271571 154.21231924211287" height="154.21231924211287" width="213.1584412271571"><g><svg viewBox="0 0 213.1584412271571 154.21231924211287" height="154.21231924211287" width="213.1584412271571"><g transform="matrix(1,0,0,1,0,92.75669755938637)"><svg viewBox="0 0 213.1584412271571 61.45562168272649" height="61.45562168272649" width="213.1584412271571"><g id="textblocktransform"><svg viewBox="0 0 213.1584412271571 61.45562168272649" height="61.45562168272649" width="213.1584412271571" id="textblock"><g><svg viewBox="0 0 213.1584412271571 33.14622576567869" height="33.14622576567869" width="213.1584412271571"><g transform="matrix(1,0,0,1,0,0)"><svg width="213.1584412271571" viewBox="1.8 -37 241.78 37.6" height="33.14622576567869" data-palette-color="#ffffff"><path d="M12 0.6L12 0.6Q8.4 0.6 5.98-0.78 3.55-2.15 1.8-4.45L1.8-4.45 4.65-6.75Q6.15-4.85 8-3.83 9.85-2.8 12.3-2.8L12.3-2.8Q14.85-2.8 16.28-3.9 17.7-5 17.7-7L17.7-7Q17.7-8.5 16.73-9.58 15.75-10.65 13.2-11.05L13.2-11.05 11.15-11.35Q9.35-11.6 7.85-12.13 6.35-12.65 5.23-13.53 4.1-14.4 3.48-15.7 2.85-17 2.85-18.8L2.85-18.8Q2.85-20.7 3.55-22.13 4.25-23.55 5.48-24.5 6.7-25.45 8.4-25.93 10.1-26.4 12.05-26.4L12.05-26.4Q15.2-26.4 17.32-25.3 19.45-24.2 21.05-22.25L21.05-22.25 18.4-19.85Q17.55-21.05 15.9-22.03 14.25-23 11.75-23L11.75-23Q9.25-23 7.98-21.93 6.7-20.85 6.7-19L6.7-19Q6.7-17.1 7.98-16.25 9.25-15.4 11.65-15L11.65-15 13.65-14.7Q17.95-14.05 19.75-12.23 21.55-10.4 21.55-7.45L21.55-7.45Q21.55-3.7 19-1.55 16.45 0.6 12 0.6ZM28.6 0L28.6-37 32.6-37 32.6-13.55 32.8-13.55 36.75-17.95 44.05-25.8 48.9-25.8 39.35-15.6 49.85 0 45 0 36.45-13.15 32.6-9.2 32.6 0 28.6 0ZM56.95-31.85L56.95-31.85Q55.65-31.85 55.07-32.48 54.5-33.1 54.5-34.1L54.5-34.1 54.5-34.75Q54.5-35.75 55.07-36.38 55.65-37 56.95-37L56.95-37Q58.25-37 58.82-36.38 59.4-35.75 59.4-34.75L59.4-34.75 59.4-34.1Q59.4-33.1 58.82-32.48 58.25-31.85 56.95-31.85ZM54.95 0L54.95-25.8 58.95-25.8 58.95 0 54.95 0ZM75.24 0L71.69 0Q69.59 0 68.52-1.18 67.44-2.35 67.44-4.15L67.44-4.15 67.44-37 71.44-37 71.44-3.5 75.24-3.5 75.24 0ZM88.59 0L85.04 0Q82.94 0 81.87-1.18 80.79-2.35 80.79-4.15L80.79-4.15 80.79-37 84.79-37 84.79-3.5 88.59-3.5 88.59 0ZM102.14 0.6L102.14 0.6Q98.54 0.6 96.11-0.78 93.69-2.15 91.94-4.45L91.94-4.45 94.79-6.75Q96.29-4.85 98.14-3.83 99.99-2.8 102.44-2.8L102.44-2.8Q104.99-2.8 106.41-3.9 107.84-5 107.84-7L107.84-7Q107.84-8.5 106.86-9.58 105.89-10.65 103.34-11.05L103.34-11.05 101.29-11.35Q99.49-11.6 97.99-12.13 96.49-12.65 95.36-13.53 94.24-14.4 93.61-15.7 92.99-17 92.99-18.8L92.99-18.8Q92.99-20.7 93.69-22.13 94.39-23.55 95.61-24.5 96.84-25.45 98.54-25.93 100.24-26.4 102.19-26.4L102.19-26.4Q105.34-26.4 107.46-25.3 109.59-24.2 111.19-22.25L111.19-22.25 108.54-19.85Q107.69-21.05 106.04-22.03 104.39-23 101.89-23L101.89-23Q99.39-23 98.11-21.93 96.84-20.85 96.84-19L96.84-19Q96.84-17.1 98.11-16.25 99.39-15.4 101.79-15L101.79-15 103.79-14.7Q108.09-14.05 109.89-12.23 111.69-10.4 111.69-7.45L111.69-7.45Q111.69-3.7 109.14-1.55 106.59 0.6 102.14 0.6ZM129.09 0L124.09 0Q121.99 0 120.91-1.18 119.84-2.35 119.84-4.25L119.84-4.25 119.84-22.3 115.59-22.3 115.59-25.8 117.99-25.8Q119.29-25.8 119.76-26.33 120.24-26.85 120.24-28.15L120.24-28.15 120.24-32.95 123.84-32.95 123.84-25.8 129.49-25.8 129.49-22.3 123.84-22.3 123.84-3.5 129.09-3.5 129.09 0ZM139.93 0L135.93 0 135.93-25.8 139.93-25.8 139.93-21.05 140.18-21.05Q140.88-22.9 142.68-24.35 144.48-25.8 147.63-25.8L147.63-25.8 149.18-25.8 149.18-21.8 146.83-21.8Q143.58-21.8 141.76-20.58 139.93-19.35 139.93-17.5L139.93-17.5 139.93 0ZM163.73 0.6L163.73 0.6Q161.08 0.6 158.96-0.35 156.83-1.3 155.31-3.08 153.78-4.85 152.96-7.33 152.13-9.8 152.13-12.9L152.13-12.9Q152.13-15.95 152.96-18.45 153.78-20.95 155.31-22.73 156.83-24.5 158.96-25.45 161.08-26.4 163.73-26.4L163.73-26.4Q166.33-26.4 168.38-25.45 170.43-24.5 171.88-22.83 173.33-21.15 174.11-18.85 174.88-16.55 174.88-13.8L174.88-13.8 174.88-11.9 156.33-11.9 156.33-10.7Q156.33-9.05 156.86-7.63 157.38-6.2 158.36-5.15 159.33-4.1 160.76-3.5 162.18-2.9 163.98-2.9L163.98-2.9Q166.43-2.9 168.26-4.05 170.08-5.2 171.08-7.35L171.08-7.35 173.93-5.3Q172.68-2.65 170.03-1.03 167.38 0.6 163.73 0.6ZM163.73-23.05L163.73-23.05Q162.08-23.05 160.73-22.48 159.38-21.9 158.41-20.85 157.43-19.8 156.88-18.38 156.33-16.95 156.33-15.25L156.33-15.25 156.33-14.9 170.58-14.9 170.58-15.45Q170.58-18.9 168.71-20.98 166.83-23.05 163.73-23.05ZM202.48 0L200.23 0Q197.98 0 197-1.2 196.03-2.4 195.78-4.2L195.78-4.2 195.53-4.2Q194.68-1.8 192.73-0.6 190.78 0.6 188.08 0.6L188.08 0.6Q183.98 0.6 181.7-1.5 179.43-3.6 179.43-7.2L179.43-7.2Q179.43-10.85 182.1-12.8 184.78-14.75 190.43-14.75L190.43-14.75 195.53-14.75 195.53-17.3Q195.53-20.05 194.03-21.5 192.53-22.95 189.43-22.95L189.43-22.95Q187.08-22.95 185.5-21.9 183.93-20.85 182.88-19.1L182.88-19.1 180.48-21.35Q181.53-23.45 183.83-24.93 186.13-26.4 189.63-26.4L189.63-26.4Q194.33-26.4 196.93-24.1 199.53-21.8 199.53-17.7L199.53-17.7 199.53-3.5 202.48-3.5 202.48 0ZM188.73-2.8L188.73-2.8Q190.23-2.8 191.48-3.15 192.73-3.5 193.63-4.15 194.53-4.8 195.03-5.65 195.53-6.5 195.53-7.5L195.53-7.5 195.53-11.75 190.23-11.75Q186.78-11.75 185.2-10.75 183.63-9.75 183.63-7.85L183.63-7.85 183.63-6.8Q183.63-4.9 185-3.85 186.38-2.8 188.73-2.8ZM212.18 0L208.18 0 208.18-25.8 212.18-25.8 212.18-21.6 212.38-21.6Q212.83-22.6 213.4-23.48 213.98-24.35 214.8-25 215.63-25.65 216.73-26.03 217.83-26.4 219.33-26.4L219.33-26.4Q221.88-26.4 224.03-25.18 226.18-23.95 227.23-21.15L227.23-21.15 227.33-21.15Q228.03-23.25 229.95-24.83 231.88-26.4 235.18-26.4L235.18-26.4Q239.13-26.4 241.35-23.83 243.58-21.25 243.58-16.55L243.58-16.55 243.58 0 239.58 0 239.58-15.85Q239.58-19.3 238.23-21.05 236.88-22.8 233.93-22.8L233.93-22.8Q232.73-22.8 231.65-22.5 230.58-22.2 229.73-21.6 228.88-21 228.38-20.08 227.88-19.15 227.88-17.9L227.88-17.9 227.88 0 223.88 0 223.88-15.85Q223.88-19.3 222.53-21.05 221.18-22.8 218.33-22.8L218.33-22.8Q217.13-22.8 216.03-22.5 214.93-22.2 214.08-21.6 213.23-21 212.7-20.08 212.18-19.15 212.18-17.9L212.18-17.9 212.18 0Z" opacity="1" transform="matrix(1,0,0,1,0,0)" fill="#ffffff" class="wordmark-text-0" data-fill-palette-color="quaternary" id="text-0"></path></svg></g></svg></g><g transform="matrix(1,0,0,1,0,40.971254159537054)"><svg viewBox="0 0 213.1584412271571 20.484367523189434" height="20.484367523189434" width="213.1584412271571"><g transform="matrix(1,0,0,1,0,0)"><svg width="213.1584412271571" viewBox="3 -38.15 517.69 49.75" height="20.484367523189434" data-palette-color="#ffffff"><path d="M12.35 0L10.95 0Q7.1 0 5.05-1.75 3-3.5 3-7.35L3-7.35 3-33.7Q3-34.25 3.53-34.58 4.05-34.9 4.6-34.9L4.6-34.9Q5.25-34.9 5.75-34.58 6.25-34.25 6.25-33.7L6.25-33.7 6.25-23.65 12.75-23.65Q13.25-23.65 13.55-23.25 13.85-22.85 13.85-22.3L13.85-22.3Q13.85-21.75 13.55-21.35 13.25-20.95 12.75-20.95L12.75-20.95 6.25-20.95 6.25-7.35Q6.25-4.9 7.3-3.93 8.35-2.95 10.95-2.95L10.95-2.95 12.35-2.95Q13.05-2.95 13.43-2.53 13.8-2.1 13.8-1.5L13.8-1.5Q13.8-0.9 13.43-0.45 13.05 0 12.35 0L12.35 0ZM39.24 0.35L39.24 0.35Q36.09 0.35 33.66-0.85 31.24-2.05 29.86-4.17 28.49-6.3 28.49-9.15L28.49-9.15 28.49-14.75Q28.49-17.25 29.79-19.35 31.09-21.45 33.26-22.7 35.44-23.95 38.04-23.95L38.04-23.95Q40.54-23.95 42.66-22.78 44.79-21.6 46.09-19.55 47.39-17.5 47.39-14.85L47.39-14.85Q47.39-12.9 46.74-12.08 46.09-11.25 45.11-11.05 44.14-10.85 43.04-10.85L43.04-10.85 31.74-10.85 31.74-9Q31.74-6 33.89-4.25 36.04-2.5 39.34-2.5L39.34-2.5Q41.34-2.5 42.44-3 43.54-3.5 44.16-4 44.79-4.5 45.34-4.5L45.34-4.5Q45.74-4.5 46.06-4.23 46.39-3.95 46.56-3.6 46.74-3.25 46.74-2.95L46.74-2.95Q46.74-2.4 45.84-1.6 44.94-0.8 43.24-0.23 41.54 0.35 39.24 0.35ZM31.74-15.15L31.74-13.25 41.74-13.25Q43.24-13.25 43.74-13.58 44.24-13.9 44.24-14.95L44.24-14.95Q44.24-16.55 43.46-18 42.69-19.45 41.26-20.35 39.84-21.25 37.99-21.25L37.99-21.25Q36.29-21.25 34.86-20.43 33.44-19.6 32.59-18.23 31.74-16.85 31.74-15.15L31.74-15.15ZM69.42 0.35L69.42 0.35Q66.62 0.35 64.62-1.28 62.62-2.9 62.62-6.25L62.62-6.25Q62.62-9 64.1-10.48 65.57-11.95 68.2-12.53 70.82-13.1 74.27-13.1L74.27-13.1 76.82-13.1 76.82-14.3Q76.82-15.9 76.25-17.48 75.67-19.05 74.4-20.08 73.12-21.1 70.92-21.1L70.92-21.1Q69.27-21.1 68.22-20.75 67.17-20.4 66.57-20.03 65.97-19.65 65.57-19.65L65.57-19.65Q64.97-19.65 64.62-20.25 64.27-20.85 64.27-21.4L64.27-21.4Q64.27-22.05 65.3-22.63 66.32-23.2 67.9-23.58 69.47-23.95 71.02-23.95L71.02-23.95Q74.37-23.95 76.35-22.58 78.32-21.2 79.2-19 80.07-16.8 80.07-14.3L80.07-14.3 80.07-1.3Q80.07-0.75 79.65-0.38 79.22 0 78.47 0L78.47 0Q77.87 0 77.42-0.38 76.97-0.75 76.97-1.3L76.97-1.3 76.97-3.5Q75.67-2.05 73.82-0.85 71.97 0.35 69.42 0.35ZM70.22-2.4L70.22-2.4Q71.87-2.4 73.37-3.25 74.87-4.1 75.85-5.33 76.82-6.55 76.82-7.65L76.82-7.65 76.82-10.85 74.72-10.85Q72.47-10.85 70.45-10.58 68.42-10.3 67.15-9.4 65.87-8.5 65.87-6.55L65.87-6.55Q65.87-4.4 67.15-3.4 68.42-2.4 70.22-2.4ZM106.91 0.35L106.91 0.35Q103.61 0.35 101.46-0.9 99.31-2.15 98.26-4.3 97.21-6.45 97.21-9.15L97.21-9.15 97.21-14.5Q97.21-17.15 98.23-19.3 99.26-21.45 101.43-22.7 103.61-23.95 106.91-23.95L106.91-23.95Q109.01-23.95 110.58-23.43 112.16-22.9 113.03-22.15 113.91-21.4 113.91-20.7L113.91-20.7Q113.91-20.4 113.73-20.03 113.56-19.65 113.23-19.38 112.91-19.1 112.51-19.1L112.51-19.1Q112.06-19.1 111.48-19.58 110.91-20.05 109.91-20.5 108.91-20.95 107.06-20.95L107.06-20.95Q103.81-20.95 102.13-19.23 100.46-17.5 100.46-14.5L100.46-14.5 100.46-9.15Q100.46-6.1 102.13-4.38 103.81-2.65 107.11-2.65L107.11-2.65Q109.01-2.65 110.06-3.13 111.11-3.6 111.68-4.08 112.26-4.55 112.76-4.55L112.76-4.55Q113.21-4.55 113.53-4.3 113.86-4.05 114.03-3.7 114.21-3.35 114.21-2.95L114.21-2.95Q114.21-2.3 113.31-1.53 112.41-0.75 110.78-0.2 109.16 0.35 106.91 0.35ZM132.2 0L132.2 0Q131.55 0 131.07-0.4 130.6-0.8 130.6-1.3L130.6-1.3 130.6-36.95Q130.6-37.5 131.07-37.83 131.55-38.15 132.2-38.15L132.2-38.15Q132.9-38.15 133.37-37.83 133.85-37.5 133.85-36.95L133.85-36.95 133.85-20.15Q134.7-21.6 136.35-22.78 138-23.95 140.45-23.95L140.45-23.95Q142.85-23.95 144.87-22.68 146.9-21.4 148.1-19.3 149.3-17.2 149.3-14.6L149.3-14.6 149.3-1.3Q149.3-0.65 148.8-0.33 148.3 0 147.65 0L147.65 0Q147.1 0 146.57-0.33 146.05-0.65 146.05-1.3L146.05-1.3 146.05-14.6Q146.05-16.2 145.2-17.65 144.35-19.1 142.95-20.03 141.55-20.95 139.85-20.95L139.85-20.95Q138.35-20.95 136.97-20.18 135.6-19.4 134.72-18 133.85-16.6 133.85-14.6L133.85-14.6 133.85-1.3Q133.85-0.8 133.37-0.4 132.9 0 132.2 0ZM168.83 0L168.83 0Q168.18 0 167.71-0.4 167.23-0.8 167.23-1.3L167.23-1.3 167.23-22.45Q167.23-23 167.71-23.33 168.18-23.65 168.83-23.65L168.83-23.65Q169.53-23.65 170.01-23.33 170.48-23 170.48-22.45L170.48-22.45 170.48-1.3Q170.48-0.8 170.01-0.4 169.53 0 168.83 0ZM168.83-30.65L168.83-30.65Q167.93-30.65 167.28-31.28 166.63-31.9 166.63-32.75L166.63-32.75Q166.63-33.6 167.28-34.2 167.93-34.8 168.83-34.8L168.83-34.8Q169.78-34.8 170.41-34.2 171.03-33.6 171.03-32.75L171.03-32.75Q171.03-31.9 170.41-31.28 169.78-30.65 168.83-30.65ZM190.22 0L190.22 0Q189.57 0 189.09-0.4 188.62-0.8 188.62-1.3L188.62-1.3 188.62-22.45Q188.62-23 189.09-23.33 189.57-23.65 190.22-23.65L190.22-23.65Q190.87-23.65 191.32-23.33 191.77-23 191.77-22.45L191.77-22.45 191.77-20.15Q192.57-21.6 194.27-22.78 195.97-23.95 198.47-23.95L198.47-23.95Q200.87-23.95 202.89-22.68 204.92-21.4 206.12-19.3 207.32-17.2 207.32-14.6L207.32-14.6 207.32-1.3Q207.32-0.65 206.82-0.33 206.32 0 205.67 0L205.67 0Q205.12 0 204.59-0.33 204.07-0.65 204.07-1.3L204.07-1.3 204.07-14.6Q204.07-16.2 203.22-17.65 202.37-19.1 200.97-20.03 199.57-20.95 197.87-20.95L197.87-20.95Q196.37-20.95 194.99-20.18 193.62-19.4 192.74-18 191.87-16.6 191.87-14.6L191.87-14.6 191.87-1.3Q191.87-0.8 191.39-0.4 190.92 0 190.22 0ZM233.65 11.6L233.65 11.6Q230.7 11.6 228.43 10.78 226.15 9.95 224.83 8.47 223.5 7 223.5 4.95L223.5 4.95Q223.5 2.75 224.8 1.45 226.1 0.15 227.75-0.5L227.75-0.5Q226.55-0.95 225.78-1.73 225-2.5 225-3.95L225-3.95Q225-5.35 225.7-6.18 226.4-7 227.5-7.55L227.5-7.55Q226.15-8.65 225.45-10.28 224.75-11.9 224.75-13.85L224.75-13.85 224.75-15.75Q224.75-18.15 225.8-20 226.85-21.85 228.8-22.9 230.75-23.95 233.35-23.95L233.35-23.95Q235.1-23.95 236.6-23.4 238.1-22.85 239.2-21.85L239.2-21.85Q239.95-23.4 240.9-24.2 241.85-25 242.75-25L242.75-25Q243.5-25 243.88-24.58 244.25-24.15 244.25-23.7L244.25-23.7Q244.25-23.25 244-22.98 243.75-22.7 243.4-22.6L243.4-22.6Q242.8-22.5 242.03-22.05 241.25-21.6 240.6-20.45L240.6-20.45Q241.3-19.5 241.65-18.3 242-17.1 242-15.75L242-15.75 242-13.85Q242-11.5 240.9-9.6 239.8-7.7 237.83-6.63 235.85-5.55 233.3-5.55L233.3-5.55Q231.15-5.55 229.45-6.4L229.45-6.4Q228.9-6.1 228.4-5.68 227.9-5.25 227.9-4.45L227.9-4.45Q227.9-3.35 229.05-2.85 230.2-2.35 231.95-2.15 233.7-1.95 235.68-1.73 237.65-1.5 239.43-0.9 241.2-0.3 242.33 0.95 243.45 2.2 243.45 4.5L243.45 4.5Q243.45 6.85 242.18 8.43 240.9 10 238.7 10.8 236.5 11.6 233.65 11.6ZM233.6 9.15L233.6 9.15Q236.75 9.15 238.53 7.9 240.3 6.65 240.3 4.6L240.3 4.6Q240.3 3 239.33 2.18 238.35 1.35 236.88 1 235.4 0.65 233.83 0.5 232.25 0.35 231.1 0.2L231.1 0.2Q229.35 0.75 228 1.8 226.65 2.85 226.65 4.65L226.65 4.65Q226.65 6.65 228.5 7.9 230.35 9.15 233.6 9.15ZM233.4-8L233.4-8Q235.95-8 237.38-9.68 238.8-11.35 238.8-13.85L238.8-13.85 238.8-15.75Q238.8-18.2 237.38-19.85 235.95-21.5 233.35-21.5L233.35-21.5Q230.75-21.5 229.33-19.85 227.9-18.2 227.9-15.75L227.9-15.75 227.9-13.9Q227.9-11.4 229.35-9.7 230.8-8 233.4-8ZM287.08 0.35L287.08 0.35Q284.28 0.35 282.28-1.28 280.28-2.9 280.28-6.25L280.28-6.25Q280.28-9 281.75-10.48 283.23-11.95 285.85-12.53 288.48-13.1 291.93-13.1L291.93-13.1 294.48-13.1 294.48-14.3Q294.48-15.9 293.9-17.48 293.33-19.05 292.05-20.08 290.78-21.1 288.58-21.1L288.58-21.1Q286.93-21.1 285.88-20.75 284.83-20.4 284.23-20.03 283.63-19.65 283.23-19.65L283.23-19.65Q282.63-19.65 282.28-20.25 281.93-20.85 281.93-21.4L281.93-21.4Q281.93-22.05 282.95-22.63 283.98-23.2 285.55-23.58 287.13-23.95 288.68-23.95L288.68-23.95Q292.03-23.95 294-22.58 295.98-21.2 296.85-19 297.73-16.8 297.73-14.3L297.73-14.3 297.73-1.3Q297.73-0.75 297.3-0.38 296.88 0 296.13 0L296.13 0Q295.53 0 295.08-0.38 294.63-0.75 294.63-1.3L294.63-1.3 294.63-3.5Q293.33-2.05 291.48-0.85 289.63 0.35 287.08 0.35ZM287.88-2.4L287.88-2.4Q289.53-2.4 291.03-3.25 292.53-4.1 293.5-5.33 294.48-6.55 294.48-7.65L294.48-7.65 294.48-10.85 292.38-10.85Q290.13-10.85 288.1-10.58 286.08-10.3 284.8-9.4 283.53-8.5 283.53-6.55L283.53-6.55Q283.53-4.4 284.8-3.4 286.08-2.4 287.88-2.4ZM324.56 0.35L324.56 0.35Q321.26 0.35 319.11-0.9 316.96-2.15 315.91-4.3 314.86-6.45 314.86-9.15L314.86-9.15 314.86-14.5Q314.86-17.15 315.89-19.3 316.91-21.45 319.09-22.7 321.26-23.95 324.56-23.95L324.56-23.95Q326.66-23.95 328.24-23.43 329.81-22.9 330.69-22.15 331.56-21.4 331.56-20.7L331.56-20.7Q331.56-20.4 331.39-20.03 331.21-19.65 330.89-19.38 330.56-19.1 330.16-19.1L330.16-19.1Q329.71-19.1 329.14-19.58 328.56-20.05 327.56-20.5 326.56-20.95 324.71-20.95L324.71-20.95Q321.46-20.95 319.79-19.23 318.11-17.5 318.11-14.5L318.11-14.5 318.11-9.15Q318.11-6.1 319.79-4.38 321.46-2.65 324.76-2.65L324.76-2.65Q326.66-2.65 327.71-3.13 328.76-3.6 329.34-4.08 329.91-4.55 330.41-4.55L330.41-4.55Q330.86-4.55 331.19-4.3 331.51-4.05 331.69-3.7 331.86-3.35 331.86-2.95L331.86-2.95Q331.86-2.3 330.96-1.53 330.06-0.75 328.44-0.2 326.81 0.35 324.56 0.35ZM353.45 0.35L353.45 0.35Q350.65 0.35 348.65-1.28 346.65-2.9 346.65-6.25L346.65-6.25Q346.65-9 348.12-10.48 349.6-11.95 352.22-12.53 354.85-13.1 358.3-13.1L358.3-13.1 360.85-13.1 360.85-14.3Q360.85-15.9 360.27-17.48 359.7-19.05 358.42-20.08 357.15-21.1 354.95-21.1L354.95-21.1Q353.3-21.1 352.25-20.75 351.2-20.4 350.6-20.03 350-19.65 349.6-19.65L349.6-19.65Q349-19.65 348.65-20.25 348.3-20.85 348.3-21.4L348.3-21.4Q348.3-22.05 349.32-22.63 350.35-23.2 351.92-23.58 353.5-23.95 355.05-23.95L355.05-23.95Q358.4-23.95 360.37-22.58 362.35-21.2 363.22-19 364.1-16.8 364.1-14.3L364.1-14.3 364.1-1.3Q364.1-0.75 363.67-0.38 363.25 0 362.5 0L362.5 0Q361.9 0 361.45-0.38 361-0.75 361-1.3L361-1.3 361-3.5Q359.7-2.05 357.85-0.85 356 0.35 353.45 0.35ZM354.25-2.4L354.25-2.4Q355.9-2.4 357.4-3.25 358.9-4.1 359.87-5.33 360.85-6.55 360.85-7.65L360.85-7.65 360.85-10.85 358.75-10.85Q356.5-10.85 354.47-10.58 352.45-10.3 351.17-9.4 349.9-8.5 349.9-6.55L349.9-6.55Q349.9-4.4 351.17-3.4 352.45-2.4 354.25-2.4ZM390.04 0.35L390.04 0.35Q387.69 0.35 385.64-0.98 383.59-2.3 382.39-4.5 381.19-6.7 381.19-9.15L381.19-9.15 381.19-14.6Q381.19-17.2 382.39-19.3 383.59-21.4 385.64-22.68 387.69-23.95 390.14-23.95L390.14-23.95Q392.59-23.95 394.26-22.78 395.94-21.6 396.74-20.15L396.74-20.15 396.74-36.95Q396.74-37.5 397.24-37.83 397.74-38.15 398.39-38.15L398.39-38.15Q399.14-38.15 399.56-37.83 399.99-37.5 399.99-36.95L399.99-36.95 399.99-1.3Q399.99-0.8 399.56-0.4 399.14 0 398.39 0L398.39 0Q397.79 0 397.34-0.4 396.89-0.8 396.89-1.3L396.89-1.3 396.89-3.5Q396.09-1.95 394.21-0.8 392.34 0.35 390.04 0.35ZM390.59-2.65L390.59-2.65Q392.39-2.65 393.76-3.58 395.14-4.5 395.94-5.68 396.74-6.85 396.74-7.6L396.74-7.6 396.74-14.6Q396.74-16.6 395.84-18 394.94-19.4 393.54-20.18 392.14-20.95 390.64-20.95L390.64-20.95Q388.94-20.95 387.54-20.03 386.14-19.1 385.29-17.65 384.44-16.2 384.44-14.6L384.44-14.6 384.44-9.15Q384.44-7.5 385.29-6 386.14-4.5 387.54-3.58 388.94-2.65 390.59-2.65ZM428.07 0.35L428.07 0.35Q424.92 0.35 422.5-0.85 420.07-2.05 418.7-4.17 417.32-6.3 417.32-9.15L417.32-9.15 417.32-14.75Q417.32-17.25 418.62-19.35 419.92-21.45 422.1-22.7 424.27-23.95 426.87-23.95L426.87-23.95Q429.37-23.95 431.5-22.78 433.62-21.6 434.92-19.55 436.22-17.5 436.22-14.85L436.22-14.85Q436.22-12.9 435.57-12.08 434.92-11.25 433.95-11.05 432.97-10.85 431.87-10.85L431.87-10.85 420.57-10.85 420.57-9Q420.57-6 422.72-4.25 424.87-2.5 428.17-2.5L428.17-2.5Q430.17-2.5 431.27-3 432.37-3.5 433-4 433.62-4.5 434.17-4.5L434.17-4.5Q434.57-4.5 434.9-4.23 435.22-3.95 435.4-3.6 435.57-3.25 435.57-2.95L435.57-2.95Q435.57-2.4 434.67-1.6 433.77-0.8 432.07-0.23 430.37 0.35 428.07 0.35ZM420.57-15.15L420.57-13.25 430.57-13.25Q432.07-13.25 432.57-13.58 433.07-13.9 433.07-14.95L433.07-14.95Q433.07-16.55 432.3-18 431.52-19.45 430.1-20.35 428.67-21.25 426.82-21.25L426.82-21.25Q425.12-21.25 423.7-20.43 422.27-19.6 421.42-18.23 420.57-16.85 420.57-15.15L420.57-15.15ZM454.61 0L454.61 0Q453.96 0 453.48-0.4 453.01-0.8 453.01-1.3L453.01-1.3 453.01-22.45Q453.01-23 453.48-23.33 453.96-23.65 454.61-23.65L454.61-23.65Q455.26-23.65 455.71-23.33 456.16-23 456.16-22.45L456.16-22.45 456.16-20.15Q457.01-21.6 458.68-22.78 460.36-23.95 462.81-23.95L462.81-23.95Q465.31-23.95 467.16-22.55 469.01-21.15 469.91-18.95L469.91-18.95Q471.21-21.5 473.28-22.73 475.36-23.95 477.51-23.95L477.51-23.95Q479.66-23.95 481.58-22.85 483.51-21.75 484.71-19.68 485.91-17.6 485.91-14.6L485.91-14.6 485.91-1.3Q485.91-0.8 485.43-0.4 484.96 0 484.26 0L484.26 0Q483.61 0 483.13-0.4 482.66-0.8 482.66-1.3L482.66-1.3 482.66-14.6Q482.66-16.7 481.81-18.1 480.96-19.5 479.66-20.23 478.36-20.95 476.96-20.95L476.96-20.95Q475.51-20.95 474.18-20.2 472.86-19.45 471.98-18.07 471.11-16.7 471.11-14.8L471.11-14.8 471.11-1.25Q471.11-0.6 470.58-0.3 470.06 0 469.46 0L469.46 0Q468.91 0 468.38-0.3 467.86-0.6 467.86-1.25L467.86-1.25 467.86-14.75Q467.86-16.55 467.08-17.95 466.31-19.35 465.01-20.15 463.71-20.95 462.16-20.95L462.16-20.95Q460.71-20.95 459.36-20.2 458.01-19.45 457.13-18.05 456.26-16.65 456.26-14.6L456.26-14.6 456.26-1.3Q456.26-0.8 455.78-0.4 455.31 0 454.61 0ZM502.69 11.6L502.69 11.6Q502.04 11.6 501.62 11.28 501.19 10.95 501.19 10.15L501.19 10.15Q501.19 9.55 501.42 9.1 501.64 8.65 502.19 8.65L502.19 8.65Q503.39 8.65 504.49 7.9 505.59 7.15 506.54 5.78 507.49 4.4 508.24 2.68 508.99 0.95 509.44-1L509.44-1 501.29-21.95Q501.14-22.2 501.14-22.4L501.14-22.4Q501.14-22.85 501.47-23.2 501.79-23.55 502.27-23.75 502.74-23.95 503.14-23.95L503.14-23.95Q503.54-23.95 503.87-23.78 504.19-23.6 504.29-23.25L504.29-23.25 511.14-4.85 517.59-23.25Q517.74-23.6 518.04-23.78 518.34-23.95 518.69-23.95L518.69-23.95Q519.09-23.95 519.57-23.75 520.04-23.55 520.37-23.2 520.69-22.85 520.69-22.35L520.69-22.35Q520.69-22.1 520.59-21.95L520.59-21.95 512.84-0.95Q512.09 1.05 511.24 3.25 510.39 5.45 509.27 7.33 508.14 9.2 506.54 10.4 504.94 11.6 502.69 11.6Z" opacity="1" transform="matrix(1,0,0,1,0,0)" fill="#ffffff" class="slogan-text-1" data-fill-palette-color="quaternary" id="text-1"></path></svg></g></svg></g></svg></g></svg></g><g transform="matrix(1,0,0,1,64.04531508720078,0)"><svg viewBox="0 0 85.06781105275556 84.931669165528" height="84.931669165528" width="85.06781105275556"><g><svg xmlns="http://www.w3.org/2000/svg" xmlns:xlink="http://www.w3.org/1999/xlink" version="1.1" x="0" y="0" viewBox="5.023 5.267000000000001 85.60400000000001 85.46700000000001" enable-background="new 0 0 96 96" xml:space="preserve" height="84.931669165528" width="85.06781105275556" class="icon-icon-0" data-fill-palette-color="quaternary" id="icon-0"><path d="M81.525 36.618L48.002 16.093 14.479 36.618h7.957v30.998h-3.023v3.653H14.75v5.152h12.21v3.355h42.08v-3.355h12.21V71.27h-4.659v-3.653h-3.023V36.618H81.525zM26.96 74.922H16.25V72.77h3.162 7.548V74.922zM26.96 71.27h-6.048v-2.153h1.523 4.524V71.27zM26.96 67.616h-3.024V36.618h5.807v16.248H26.96V67.616zM67.54 67.616v1.5 2.153 1.5 2.152 1.5 1.855H28.46v-1.855-1.5V72.77v-1.5-2.153-1.5-13.25h1.282 0.601l0.002 13.25v1.5 2.153 1.5l0.001 2.152v1.5 1.171l0.697-1.171 0.697-1.172c0.014-0.023 0.089-0.146 0.242-0.328 0.436-0.521 1.513-1.531 3.601-2.152 1.05-0.313 2.348-0.528 3.962-0.528s2.913 0.216 3.963 0.528c2.09 0.622 3.168 1.635 3.602 2.152 0.15 0.18 0.225 0.3 0.237 0.322l0.641 1.11 0.658-1.104c0.014-0.023 0.09-0.146 0.242-0.328 0.437-0.521 1.516-1.531 3.604-2.152 1.05-0.313 2.349-0.528 3.962-0.528 1.614 0 2.912 0.216 3.962 0.528 2.088 0.621 3.167 1.632 3.603 2.152 0.149 0.178 0.225 0.299 0.241 0.326l0.671 1.174 0.729 1.273v-1.273-1.5V72.77v-1.5-2.153-1.5-13.25h0.602 1.28V67.616zM56.453 48.475c5.251 0 7.259 2.25 7.705 2.857v2.284 14 1.5 2.153 1.5 0.229c-0.095-0.075-0.209-0.152-0.315-0.229-0.764-0.548-1.821-1.105-3.243-1.5-1.14-0.316-2.501-0.528-4.146-0.528-1.638 0-2.984 0.215-4.121 0.528-1.43 0.395-2.51 0.95-3.276 1.5-0.114 0.082-0.206 0.161-0.308 0.241V72.77v-1.5-2.153-1.5-14-2.283c0.23-0.313 0.875-1.058 2.158-1.71 0.425-0.216 0.926-0.418 1.5-0.594C53.471 48.703 54.795 48.475 56.453 48.475zM52.406 47.484V36.618H64.76v13.144c-1.137-1.115-3.621-2.787-8.307-2.787C54.851 46.975 53.528 47.182 52.406 47.484zM50.906 47.983c-1.431 0.603-2.362 1.358-2.908 1.927-0.544-0.568-1.473-1.321-2.899-1.925V36.618h5.808V47.983zM47.248 51.333v2.283 14 1.5 2.153 1.5 0.24c-0.101-0.08-0.192-0.158-0.307-0.24-0.766-0.55-1.846-1.105-3.274-1.5-1.137-0.313-2.484-0.528-4.122-0.528-1.646 0-3.006 0.212-4.146 0.528-1.421 0.395-2.479 0.952-3.242 1.5-0.107 0.076-0.221 0.153-0.315 0.229V72.77v-1.5-2.153-1.5-14-2.283c0.452-0.615 2.461-2.858 7.703-2.858 1.662 0 2.988 0.229 4.054 0.557 0.574 0.176 1.075 0.379 1.5 0.596C46.382 50.28 47.022 51.024 47.248 51.333zM43.599 47.485c-1.123-0.303-2.448-0.511-4.054-0.511-4.683 0-7.165 1.67-8.303 2.785V36.618h12.356V47.485zM66.26 52.866V36.618h5.808v30.998H69.04v-14.75H66.26zM79.75 72.77v2.152H69.04V72.77h7.551H79.75zM75.091 69.116v2.153H69.04v-2.153h4.527H75.091zM64.76 35.118H52.406h-8.808H31.242h-8.807-2.635l28.201-17.266 28.201 17.266h-2.636H64.76z" fill="#ffffff" data-fill-palette-color="quaternary"></path><path d="M48.002 23.905c-2.428 0-4.403 1.977-4.403 4.405 0 2.427 1.976 4.4 4.403 4.4 2.429 0 4.404-1.974 4.404-4.4C52.406 25.882 50.431 23.905 48.002 23.905zM48.002 31.211c-1.601 0-2.903-1.301-2.903-2.9 0-1.602 1.303-2.905 2.903-2.905 1.602 0 2.904 1.304 2.904 2.905C50.906 29.91 49.604 31.211 48.002 31.211z" fill="#ffffff" data-fill-palette-color="quaternary"></path><path d="M39.545 51.681c-2.048 0-3.881 0.327-5.449 0.972l0.396 0.964 0.174 0.423c0.409-0.168 0.848-0.304 1.3-0.423 1.081-0.284 2.274-0.436 3.579-0.436 1.306 0 2.5 0.151 3.581 0.436 0.161 0.042 0.317 0.089 0.473 0.138 0.282 0.088 0.564 0.177 0.828 0.285l0.174-0.423 0.396-0.964c-0.443-0.183-0.914-0.332-1.398-0.464C42.369 51.855 41.015 51.681 39.545 51.681z" fill="#ffffff" data-fill-palette-color="quaternary"></path><path d="M39.545 55.147c-2.051 0-3.884 0.327-5.449 0.972l0.57 1.387c1.384-0.569 3.025-0.858 4.879-0.858 1.502 0 2.855 0.199 4.054 0.573 0.282 0.088 0.564 0.177 0.828 0.285l0.57-1.387c-0.443-0.183-0.913-0.333-1.398-0.464C42.37 55.322 41.017 55.147 39.545 55.147z" fill="#ffffff" data-fill-palette-color="quaternary"></path><path d="M39.545 58.61c-2.046 0-3.879 0.327-5.449 0.973l0.57 1.387c1.388-0.57 3.029-0.859 4.879-0.859 1.499 0 2.853 0.199 4.054 0.574 0.282 0.088 0.564 0.177 0.828 0.285l0.57-1.387c-0.443-0.183-0.914-0.333-1.398-0.464C42.368 58.785 41.014 58.61 39.545 58.61z" fill="#ffffff" data-fill-palette-color="quaternary"></path><path d="M39.545 62.077c-2.048 0-3.881 0.327-5.449 0.972l0.57 1.387c1.387-0.569 3.028-0.858 4.879-0.858 1.5 0 2.854 0.199 4.054 0.573 0.282 0.088 0.564 0.177 0.828 0.285l0.57-1.387c-0.443-0.183-0.914-0.332-1.398-0.464C42.369 62.252 41.015 62.077 39.545 62.077z" fill="#ffffff" data-fill-palette-color="quaternary"></path><path d="M39.545 65.544c-2.051 0-3.884 0.327-5.449 0.972l0.452 1.101 0.118 0.286c0.265-0.108 0.547-0.198 0.83-0.286 1.197-0.374 2.55-0.572 4.049-0.572 1.501 0 2.854 0.198 4.052 0.572 0.001 0 0.001 0 0.002 0.001 0.282 0.088 0.564 0.177 0.828 0.285l0.117-0.286 0.453-1.101c-0.443-0.183-0.913-0.333-1.398-0.464C42.37 65.719 41.017 65.544 39.545 65.544z" fill="#ffffff" data-fill-palette-color="quaternary"></path><path d="M51.003 52.652l0.396 0.964 0.174 0.423c0.266-0.109 0.549-0.198 0.833-0.287 0.153-0.048 0.309-0.094 0.468-0.136 1.081-0.284 2.275-0.436 3.581-0.436 1.087 0 2.091 0.111 3.024 0.31l-0.035 0.126-0.483 1.724c-0.796-0.12-1.626-0.192-2.506-0.192-1.47 0-2.821 0.175-4.049 0.507-0.487 0.131-0.959 0.282-1.403 0.465l0.57 1.387c0.266-0.109 0.549-0.199 0.833-0.287 1.197-0.373 2.549-0.571 4.049-0.571 0.737 0 1.431 0.059 2.098 0.149l-0.528 1.885c-0.509-0.046-1.03-0.071-1.569-0.071-1.468 0-2.819 0.175-4.049 0.508-0.486 0.132-0.958 0.282-1.403 0.465l0.57 1.387c0.266-0.109 0.549-0.198 0.833-0.287 1.199-0.374 2.552-0.572 4.049-0.572 0.396 0 0.778 0.02 1.155 0.046l-0.546 1.946c-0.204-0.007-0.4-0.025-0.609-0.025-1.468 0-2.82 0.175-4.049 0.507-0.486 0.132-0.958 0.282-1.403 0.465l0.57 1.387c0.266-0.109 0.549-0.198 0.833-0.287 1.199-0.373 2.551-0.571 4.049-0.571 0.066 0 0.128 0.007 0.194 0.008l-0.389 1.385 0.056 0.58c-1.415 0.011-2.723 0.18-3.91 0.501-0.487 0.131-0.959 0.282-1.403 0.465l0.453 1.101 0.117 0.286c0.265-0.108 0.547-0.198 0.83-0.286 0.001 0 0.002-0.001 0.003-0.001 1.197-0.373 2.549-0.571 4.049-0.571 0.002 0 0.003 0 0.005 0l0.056 0.572 0.144 1.5 0.087 0.899 0.672-0.899 1.119-1.5 0.29-0.388c0.59 0.093 1.148 0.223 1.677 0.388 0.283 0.088 0.565 0.178 0.83 0.286l0.118-0.286 0.452-1.101c-0.653-0.27-1.364-0.47-2.107-0.627l0.507-1.808c0.356 0.103 0.701 0.22 1.03 0.354l0.57-1.387c-0.383-0.157-0.782-0.294-1.195-0.414l0.48-1.715c0.047 0.019 0.099 0.031 0.145 0.05l0.57-1.387c-0.1-0.041-0.209-0.069-0.31-0.107l1.642-5.859 0.198-0.706-3.515-0.99-0.035 0.126c-1.063-0.233-2.202-0.365-3.43-0.365-1.468 0-2.82 0.175-4.049 0.507C51.92 52.319 51.448 52.47 51.003 52.652zM60.03 57.082l0.405-1.443 0.488-1.741 0.035-0.126 0.435 0.122 0.191 0.054-0.526 1.879-0.405 1.445-0.495 1.768-0.404 1.443-0.512 1.823-0.408 1.457-0.26 0.93-0.629-0.176 0.234-0.837 0.409-1.458 0.528-1.884 0.405-1.445L60.03 57.082z" fill="#ffffff" data-fill-palette-color="quaternary"></path><path d="M27.948 86.25c-1.236 0-2.242 1.006-2.242 2.242s1.006 2.242 2.242 2.242 2.242-1.006 2.242-2.242S29.185 86.25 27.948 86.25zM27.948 90.234c-0.961 0-1.742-0.781-1.742-1.742s0.781-1.742 1.742-1.742 1.742 0.781 1.742 1.742S28.909 90.234 27.948 90.234z" fill="#ffffff" data-fill-palette-color="quaternary"></path><path d="M8.231 27.813l-0.99 2.008-2.218 0.321 1.605 1.563L6.25 33.912l1.981-1.042 1.982 1.042-0.378-2.208 1.603-1.563L9.224 29.82 8.231 27.813zM9.299 31.53l0.251 1.468-1.318-0.692-1.317 0.692 0.252-1.468L6.1 30.491l1.474-0.214 0.658-1.336 0.66 1.336 1.473 0.214L9.299 31.53z" fill="#ffffff" data-fill-palette-color="quaternary"></path><path d="M28.695 8.205l-0.685-1.386-0.684 1.386-1.529 0.222 1.106 1.079-0.261 1.523 1.367-0.719 1.369 0.718-0.262-1.522 1.107-1.079L28.695 8.205zM28.716 10.116l-0.705-0.37-0.703 0.369 0.134-0.783-0.569-0.556 0.787-0.114 0.352-0.714 0.353 0.714 0.788 0.114-0.57 0.556L28.716 10.116z" fill="#ffffff" data-fill-palette-color="quaternary"></path><path d="M84.593 68.066l1.106 1.079-0.261 1.524 1.368-0.72 1.368 0.72-0.261-1.524 1.106-1.079-1.529-0.223-0.685-1.385-0.685 1.385L84.593 68.066zM86.807 67.588l0.353 0.713 0.787 0.115-0.569 0.556 0.134 0.784-0.704-0.37-0.704 0.37 0.134-0.784-0.569-0.556 0.787-0.115L86.807 67.588z" fill="#ffffff" data-fill-palette-color="quaternary"></path><path d="M86.807 14.135l-0.902 2.777h-2.919l2.36 1.717-0.901 2.775 2.362-1.716 2.361 1.716-0.901-2.775 2.36-1.717h-2.919L86.807 14.135zM87.679 18.438l0.538 1.658-1.41-1.024-1.411 1.024 0.538-1.658-1.411-1.025h1.745l0.539-1.658 0.538 1.658h1.745L87.679 18.438z" fill="#ffffff" data-fill-palette-color="quaternary"></path><path d="M76.608 7.509c0 1.236 1.006 2.242 2.242 2.242s2.242-1.006 2.242-2.242-1.006-2.242-2.242-2.242S76.608 6.272 76.608 7.509zM78.851 5.767c0.961 0 1.742 0.781 1.742 1.742s-0.781 1.742-1.742 1.742-1.742-0.781-1.742-1.742S77.89 5.767 78.851 5.767z" fill="#ffffff" data-fill-palette-color="quaternary"></path><path d="M86.557 48.986c0 0.985 0.801 1.786 1.786 1.786s1.786-0.801 1.786-1.786S89.328 47.2 88.343 47.2 86.557 48.001 86.557 48.986zM88.343 47.7c0.709 0 1.286 0.577 1.286 1.286s-0.577 1.286-1.286 1.286-1.286-0.577-1.286-1.286S87.634 47.7 88.343 47.7z" fill="#ffffff" data-fill-palette-color="quaternary"></path><path d="M12.317 17.154c0 1.302 1.059 2.361 2.36 2.361s2.36-1.06 2.36-2.361-1.059-2.36-2.36-2.36S12.317 15.853 12.317 17.154zM14.678 15.294c1.025 0 1.86 0.835 1.86 1.86 0 1.026-0.835 1.861-1.86 1.861s-1.86-0.835-1.86-1.861C12.817 16.129 13.652 15.294 14.678 15.294z" fill="#ffffff" data-fill-palette-color="quaternary"></path><path d="M21.826 88.029l-0.123 0.484c0.325 0.082 0.654 0.156 0.987 0.224l0.1-0.49C22.465 88.182 22.144 88.109 21.826 88.029z" fill="#ffffff" data-fill-palette-color="quaternary"></path><path d="M9.679 78.996l-0.43 0.256c0.338 0.565 0.709 1.122 1.104 1.655l0.402-0.297C10.37 80.09 10.008 79.547 9.679 78.996z" fill="#ffffff" data-fill-palette-color="quaternary"></path><path d="M16.463 85.804c-0.556-0.334-1.099-0.697-1.612-1.081l-0.299 0.4c0.527 0.394 1.083 0.767 1.653 1.108L16.463 85.804z" fill="#ffffff" data-fill-palette-color="quaternary"></path><path d="M6.583 71.81c0.098 0.656 0.229 1.313 0.389 1.949l0.484-0.121c-0.156-0.621-0.283-1.261-0.379-1.902L6.583 71.81z" fill="#ffffff" data-fill-palette-color="quaternary"></path><path d="M18.174 86.72l-0.215 0.451c0.6 0.284 1.218 0.541 1.84 0.764l0.168-0.471C19.361 87.247 18.758 86.996 18.174 86.72z" fill="#ffffff" data-fill-palette-color="quaternary"></path><path d="M13.018 83.856l0.336-0.369c-0.478-0.436-0.938-0.898-1.369-1.376l-0.371 0.336C12.056 82.937 12.527 83.41 13.018 83.856z" fill="#ffffff" data-fill-palette-color="quaternary"></path><path d="M8.764 77.285c-0.274-0.582-0.524-1.185-0.742-1.792l-0.471 0.168c0.224 0.623 0.479 1.241 0.762 1.837L8.764 77.285z" fill="#ffffff" data-fill-palette-color="quaternary"></path><path d="M6.365 68.853c0 0.327 0.008 0.653 0.023 0.979l0.5-0.023c-0.016-0.317-0.023-0.636-0.023-0.955 0-0.328 0.008-0.657 0.024-0.985l-0.5-0.025C6.373 68.18 6.365 68.517 6.365 68.853z" fill="#ffffff" data-fill-palette-color="quaternary"></path><path d="M6.59 65.848l0.494 0.074c0.049-0.324 0.104-0.648 0.17-0.972l-0.49-0.1C6.696 65.184 6.639 65.516 6.59 65.848z" fill="#ffffff" data-fill-palette-color="quaternary"></path><path d="M89.456 76.01l-0.5-0.008c-0.006 0.329-0.025 0.657-0.054 0.981l0.498 0.045C89.431 76.692 89.45 76.353 89.456 76.01z" fill="#ffffff" data-fill-palette-color="quaternary"></path><path d="M84.307 86.604l-0.316-0.387c-0.551 0.451-1.144 0.863-1.761 1.225l0.252 0.432C83.122 87.498 83.736 87.071 84.307 86.604z" fill="#ffffff" data-fill-palette-color="quaternary"></path><path d="M80.297 88.372c-0.665 0.259-1.356 0.465-2.054 0.614l0.104 0.488c0.724-0.153 1.441-0.368 2.132-0.636L80.297 88.372z" fill="#ffffff" data-fill-palette-color="quaternary"></path><path d="M85.91 85.063c0.493-0.554 0.945-1.15 1.343-1.772l-0.422-0.27c-0.383 0.601-0.818 1.176-1.294 1.71L85.91 85.063z" fill="#ffffff" data-fill-palette-color="quaternary"></path><path d="M87.84 81.128l0.459 0.199c0.296-0.681 0.538-1.389 0.722-2.104l-0.484-0.125C88.359 79.789 88.125 80.472 87.84 81.128z" fill="#ffffff" data-fill-palette-color="quaternary"></path><path d="M76.111 89.265c-0.324 0.017-0.65 0.023-0.983 0.016l-0.01 0.5c0.094 0.002 0.188 0.003 0.281 0.003 0.247 0 0.492-0.007 0.737-0.019L76.111 89.265z" fill="#ffffff" data-fill-palette-color="quaternary"></path><rect x="88.093" y="32.377" width="0.5" height="2" fill="#ffffff" data-fill-palette-color="quaternary"></rect><rect x="88.093" y="28.377" width="0.5" height="2" fill="#ffffff" data-fill-palette-color="quaternary"></rect><rect x="88.093" y="36.377" width="0.5" height="2" fill="#ffffff" data-fill-palette-color="quaternary"></rect><rect x="88.093" y="40.377" width="0.5" height="2" fill="#ffffff" data-fill-palette-color="quaternary"></rect></svg></g></svg></g><g></g></svg></g></svg></g></svg></g></svg></g><defs></defs></svg><rect width="342.85155851775386" height="342.85155851775386" fill="none" stroke="none" visibility="hidden"></rect></g></svg></g></svg>